# xmcd
#
# Track frame offsets:
#	182
#	13175
#	25925
#	39725
#	53542
#	64982
#	78410
#	92150
#	104620
#	119737
#	133742
#	149570
#	162765
#	174027
#	184937
#	200955
#	213652
#	226127
#	235592
#	248730
#
# Disc length: 3479 seconds
# Revision: 0
# Processed by: cddbd v1.5.2PL0 Copyright (c) Steve Scherf et al.
# Submitted via: dBpowerAMP V12.0
#
DISCID=210d9514
DTITLE=Percy Sledge - The Ultimate Collection: When A Man Loves A Woman
DYEAR=1966
DGENRE=Soul
TTITLE0=When A Man Loves A Woman
TTITLE1=It Tears Me Up
TTITLE2=Take Time to Know Her
TTITLE3=My Special Prayer
TTITLE4=Baby Help Me
TTITLE5=It's All Wrong But It's Alright
TTITLE6=You're All Around Me
TTITLE7=The Dark End of the Street
TTITLE8=Warm And Tender Love
TTITLE9=Love Me Tender
TTITLE10=Out Of Left Field
TTITLE11=Come Softly To Me
TTITLE12=What Am I Living For
TTITLE13=You're Pouring Water On A Drowning Man
TTITLE14=Just Out Of Reach (Of My Two Empty Arms)
TTITLE15=Cover Me
TTITLE16=Sudden Stop
TTITLE17=That's How Strong My Love Is
TTITLE18=You Really Got A Hold On Me
TTITLE19=Put A Little Lovin' On Me
EXTD=
EXTT0=
EXTT1=
EXTT2=
EXTT3=
EXTT4=
EXTT5=
EXTT6=
EXTT7=
EXTT8=
EXTT9=
EXTT10=
EXTT11=
EXTT12=
EXTT13=
EXTT14=
EXTT15=
EXTT16=
EXTT17=
EXTT18=
EXTT19=
PLAYORDER=
